<svg version="1.2" xmlns="http://www.w3.org/2000/svg" viewBox="0 0 246 250" width="500" height="508">
	<title>2</title>
	<defs>
		<clipPath clipPathUnits="userSpaceOnUse" id="cp1">
			<path d="m36.22 10.8h206.23v206.53h-206.23z"/>
		</clipPath>
		<clipPath clipPathUnits="userSpaceOnUse" id="cp2">
			<path d="m17.45 165.33h41.88v41.34h-41.88z"/>
		</clipPath>
		<clipPath clipPathUnits="userSpaceOnUse" id="cp3">
			<path d="m90 196.57v40.6h-41.31v-40.6z"/>
		</clipPath>
	</defs>
	<style>
		.s0 { fill: #cfab5c } 
	</style>
	<g id="Clip-Path" clip-path="url(#cp1)">
		<g>
			<path class="s0" d="m174.15 137.02c13.58-9.88 26.93-21.13 38.47-32.67 9.85-9.85 17.4-20.77 22.43-32.44 12.91-29.92 5.27-54.72 4.94-55.76-0.43-1.33-1.47-2.38-2.81-2.81-1.04-0.32-25.84-7.97-55.76 4.94-11.68 5.04-22.59 12.59-32.44 22.44-11.53 11.53-22.79 24.88-32.67 38.47-25.39-5.97-53.23 0.92-72.99 20.69-2.08 2.08-4.12 4.39-6.07 6.85-1.07 1.36-1.23 3.22-0.41 4.74 0.83 1.52 2.48 2.4 4.2 2.25 17.15-1.59 34.08 1.71 49.06 9.23q-1.18 2.61-2.19 5.12c-0.65 1.61-0.27 3.45 0.95 4.67l2.05 2.05c-3.69 2.37-7.38 5.33-10.92 8.87-14.02 14.03-12.72 37.31-12.66 38.3 0.07 1.09 0.53 2.07 1.25 2.78 0.73 0.73 1.71 1.2 2.79 1.27 0.99 0.06 24.28 1.35 38.3-12.67 3.54-3.54 6.51-7.23 8.88-10.91l2.03 2.04c1.23 1.23 3.07 1.6 4.68 0.95q2.51-1.01 5.12-2.19c7.53 14.98 10.82 31.91 9.23 49.06-0.12 1.3 0.36 2.56 1.25 3.46q0.44 0.44 1 0.74c1.52 0.83 3.39 0.67 4.75-0.41 2.46-1.94 4.76-3.99 6.84-6.06 19.77-19.77 26.66-47.6 20.7-73zm-70.6 30.2c-8.15 8.16-21.04 9.83-27.57 10.12 0.29-6.51 1.94-19.37 10.13-27.56 3.66-3.65 7.47-6.54 11.12-8.67l14.99 14.99c-2.13 3.65-5.02 7.47-8.67 11.12zm-52.76-62.54c16.56-15.69 39.04-21.61 60.07-17.78-6.59 9.64-12.4 19.24-17.01 28.26-13.28-6.67-27.98-10.28-43.06-10.48zm181.53-83.65c1.28 5.76 3.78 21.99-2.88 41.41l-38.54-38.55c19.34-6.61 35.64-4.13 41.42-2.86zm-106.21 134.63q-0.74 0.33-1.45 0.64l-27.63-27.62q0.31-0.73 0.64-1.46 1.69-3.83 3.74-7.86c4.88-9.58 11.18-19.9 18.4-30.21q2.58-3.68 5.29-7.34c9.16-12.35 19.46-24.43 30-34.98 8.32-8.31 17.42-14.83 27.09-19.4l43.72 43.71c-4.58 9.67-11.1 18.78-19.41 27.09-10.55 10.55-22.63 20.84-34.97 30q-3.66 2.72-7.35 5.3c-10.31 7.21-20.62 13.51-30.21 18.39q-4.03 2.05-7.86 3.74zm12.07 3.82c9.01-4.62 18.62-10.41 28.25-17.01 3.83 21.04-2.09 43.51-17.78 60.08-0.2-15.09-3.81-29.78-10.47-43.07z"/>
		</g>
	</g>
	<path class="s0" d="m188.14 65.19c-8.55-8.54-22.45-8.54-31 0-8.55 8.55-8.55 22.46 0 31 8.55 8.55 22.45 8.55 31 0 8.55-8.54 8.55-22.45 0-31zm-24.88 24.88c-5.17-5.17-5.17-13.59 0-18.76 5.17-5.17 13.59-5.17 18.77 0 5.17 5.17 5.17 13.59 0 18.76-5.18 5.18-13.6 5.18-18.77 0z"/>
	<path class="s0" d="m59.24 194.09c-1.69-1.69-4.43-1.69-6.12 0l-31.81 31.82c-1.7 1.69-1.7 4.43 0 6.12 1.68 1.68 4.42 1.68 6.11 0l31.82-31.82c1.69-1.69 1.69-4.43 0-6.12z"/>
	<path class="s0" d="m70.26 126.79c-1.69-1.7-4.43-1.7-6.12 0l-31.82 31.81c-1.69 1.69-1.69 4.43 0 6.12 1.69 1.69 4.43 1.69 6.12 0l31.82-31.82c1.68-1.69 1.68-4.43 0-6.11z"/>
	<g id="Clip-Path" clip-path="url(#cp2)">
		<g>
			<path class="s0" d="m57.04 166.6c-1.69-1.69-4.43-1.69-6.11 0l-31.82 31.82c-1.69 1.69-1.69 4.43 0 6.12 1.69 1.69 4.43 1.69 6.12 0l31.81-31.82c1.69-1.69 1.69-4.43 0-6.12z"/>
		</g>
	</g>
	<path class="s0" d="m128.22 184.76c-1.68-1.7-4.42-1.7-6.12 0l-31.81 31.81c-1.69 1.69-1.69 4.43 0 6.12 1.69 1.69 4.43 1.69 6.12 0l31.81-31.81c1.69-1.69 1.69-4.44 0-6.12z"/>
	<g id="Clip-Path" clip-path="url(#cp3)">
		<g>
			<path class="s0" d="m88.41 197.96c-1.69-1.68-4.43-1.68-6.12 0l-31.82 31.82c-1.69 1.69-1.69 4.43 0 6.12 1.69 1.69 4.43 1.69 6.12 0l31.82-31.81c1.69-1.69 1.69-4.43 0-6.13z"/>
		</g>
	</g>
</svg>