<svg version="1.2" xmlns="http://www.w3.org/2000/svg" viewBox="0 0 247 267" width="504" height="508">
	<title>4</title>
	<defs>
		<clipPath clipPathUnits="userSpaceOnUse" id="cp1">
			<path d="m242.67 2.77v260h-237.34v-260z"/>
		</clipPath>
	</defs>
	<style>
		.s0 { fill: #cfab5c } 
	</style>
	<g id="Clip-Path" clip-path="url(#cp1)">
		<g>
			<path class="s0" d="m221.94 138.65c-1.59-1.87-3.3-3.74-5.05-5.6 1.75-1.87 3.46-3.74 5.05-5.62 18.36-21.52 24.24-41.31 16.51-55.71-4.4-8.23-15.1-18.03-41.04-18.03-8.51 0-17.87 1.05-27.77 3.06q-1.98-6.66-4.33-12.69c-10.3-26.36-24.98-40.87-41.32-40.87-16.34 0-31.01 14.51-41.31 40.87q-2.35 6.03-4.34 12.69c-9.91-2.01-19.25-3.06-27.76-3.06v8.26-8.26c-25.94 0-36.65 9.8-41.05 18.03-7.72 14.4-1.85 34.19 16.52 55.71 1.59 1.88 3.29 3.75 5.05 5.62-1.76 1.86-3.46 3.73-5.05 5.6-18.37 21.53-24.24 41.32-16.52 55.72 4.4 8.22 15.11 18.03 41.05 18.03 8.5 0 17.85-1.05 27.76-3.06 1.33 4.42 2.77 8.68 4.34 12.7 10.3 26.36 24.97 40.87 41.31 40.87 16.34 0 31.02-14.51 41.32-40.87 1.56-4.02 3.01-8.28 4.33-12.7 9.9 2.01 19.26 3.06 27.77 3.06 25.94 0 36.64-9.81 41.04-18.03 7.73-14.4 1.85-34.19-16.51-55.72zm-51.65 22.11c-7.47 4.92-15.44 9.68-23.85 14.19-7.53 4.03-15.04 7.66-22.45 10.88-7.4-3.22-14.91-6.85-22.44-10.88-8.41-4.51-16.38-9.27-23.85-14.19-0.81-8.9-1.24-18.18-1.24-27.71 0-9.54 0.43-18.82 1.24-27.72 7.47-4.91 15.44-9.68 23.85-14.19 7.53-4.03 15.04-7.66 22.44-10.88 7.41 3.22 14.92 6.85 22.46 10.88 8.4 4.51 16.37 9.27 23.84 14.19 0.81 8.9 1.24 18.18 1.24 27.72 0 9.53-0.43 18.81-1.24 27.71zm-6.49 38.77c-9.3-2.3-19.14-5.42-29.29-9.36q7.91-3.69 15.83-7.94 9.73-5.22 18.77-10.9c-1.29 10.04-3.09 19.5-5.31 28.2zm-39.81 55.11c-15.28 0-28.87-18.45-37.57-47.12 12.01-2.96 24.67-7.23 37.57-12.68 12.91 5.45 25.57 9.72 37.58 12.68-8.7 28.67-22.29 47.12-37.58 47.12zm-45.13-83.31q9.05 5.68 18.79 10.9c5.26 2.83 10.56 5.48 15.83 7.94-10.15 3.94-19.99 7.06-29.29 9.36-2.22-8.7-4.02-18.16-5.33-28.2zm-9.01-70.69c-12.4 8.41-23.56 17.38-32.97 26.52-18.57-19.85-26.84-38.88-20.07-51.54 4.95-9.22 17.14-13.67 33.77-13.67 7.66 0 16.26 0.96 25.53 2.82-2.81 11.08-4.92 23.16-6.26 35.87zm-0.91 54.1c-9.91-7.08-18.75-14.41-26.25-21.69 7.5-7.29 16.34-14.62 26.25-21.71q-0.74 10.67-0.74 21.71 0 11.02 0.74 21.69zm-18.36 49.4c-16.63 0-28.82-4.45-33.77-13.67-6.78-12.66 1.5-31.69 20.07-51.54 9.41 9.14 20.57 18.1 32.97 26.53 1.34 12.7 3.45 24.77 6.26 35.87-9.27 1.85-17.87 2.81-25.53 2.81zm33.61-137.57c9.3 2.28 19.14 5.41 29.29 9.35-5.27 2.46-10.57 5.11-15.83 7.93q-9.74 5.23-18.79 10.92c1.31-10.05 3.11-19.51 5.33-28.2zm39.8-55.12c15.29 0 28.88 18.46 37.58 47.12-12.01 2.96-24.67 7.23-37.58 12.67-12.9-5.44-25.56-9.71-37.57-12.67 8.7-28.66 22.29-47.12 37.57-47.12zm45.12 83.32q-9.04-5.69-18.77-10.92-7.92-4.24-15.83-7.93c10.15-3.94 19.99-7.07 29.29-9.35 2.22 8.69 4.02 18.15 5.31 28.2zm9.94 16.57c9.91 7.09 18.74 14.42 26.25 21.71-7.51 7.28-16.34 14.61-26.25 21.69 0.48-7.09 0.74-14.35 0.74-21.69q-0.01-11.04-0.74-21.71zm18.36-49.39c16.63 0 28.82 4.45 33.77 13.67 6.77 12.66-1.5 31.69-20.08 51.54-9.4-9.14-20.56-18.11-32.98-26.52-1.32-12.71-3.43-24.79-6.26-35.87 9.28-1.86 17.89-2.82 25.55-2.82zm33.77 128.52c-4.94 9.22-17.14 13.67-33.77 13.67-7.66 0-16.26-0.96-25.55-2.81 2.83-11.1 4.94-23.17 6.27-35.87 12.41-8.42 23.57-17.39 32.97-26.53 18.58 19.85 26.85 38.88 20.08 51.54z"/>
		</g>
	</g>
	<path fill-rule="evenodd" class="s0" d="m123.99 155.95c-12.67 0-22.91-10.24-22.91-22.91 0-12.66 10.24-22.9 22.91-22.9 12.67 0 22.91 10.24 22.91 22.9 0 12.67-10.24 22.91-22.91 22.91z"/>
	<path fill-rule="evenodd" class="s0" d="m101.09 76.69c-6.11 0-11.04-4.94-11.04-11.05 0-6.11 4.93-11.05 11.04-11.05 6.1 0 11.04 4.94 11.04 11.05 0 6.11-4.94 11.05-11.04 11.05z"/>
	<path fill-rule="evenodd" class="s0" d="m228.88 124.22c-6.11 0-11.05-4.94-11.05-11.05 0-6.1 4.94-11.04 11.05-11.04 6.11 0 11.04 4.94 11.04 11.04 0 6.11-4.93 11.05-11.04 11.05z"/>
	<path fill-rule="evenodd" class="s0" d="m43.15 216.52c-6.1 0-11.04-4.94-11.04-11.05 0-6.11 4.94-11.04 11.04-11.04 6.11 0 11.05 4.93 11.05 11.04 0 6.11-4.94 11.05-11.05 11.05z"/>
</svg>