<svg version="1.2" xmlns="http://www.w3.org/2000/svg" viewBox="0 0 313 503" width="504" height="508">
	<title>3</title>
	<defs>
		<clipPath clipPathUnits="userSpaceOnUse" id="cp1">
			<path d="m130.92 474.01h54.17v15.94h-54.17z"/>
		</clipPath>
	</defs>
	<style>
		.s0 { fill: #cfab5c } 
	</style>
	<path class="s0" d="m158.32 14.81c-80.72 0-146.34 65.61-146.34 146.23 0 2.25 0.12 54.69 43.44 109.6 0.27 0.27 25.34 28.06 25.34 87.9 0 4.93 3.96 8.89 8.94 8.89h137.41c4.98 0 8.89-3.96 8.89-8.89 0-59.19 25.13-87.63 25.72-88.44 42.94-54.37 43-106.81 43-108.95-0.06-80.73-65.73-146.34-146.4-146.34zm89.9 243.78c-1.19 1.28-27.43 30.47-29.84 91.11h-120.1c-2.41-60.64-28.65-89.83-29.4-90.59-38.9-49.22-39.11-97.43-39.11-97.96 0-70.92 57.69-128.62 128.55-128.62 70.92 0 128.57 57.7 128.57 128.62 0 0.53-0.21 48.74-38.67 97.44z"/>
	<path class="s0" d="m219.76 413.66h-122.87c-4.87 0-8.84 3.97-8.84 8.84 0 4.93 3.97 8.9 8.84 8.9h122.93c4.88 0 8.84-3.97 8.84-8.9 0-4.83-4.02-8.84-8.9-8.84z"/>
	<path class="s0" d="m219.76 382.27h-122.87c-4.87 0-8.84 3.91-8.84 8.84 0 4.93 3.97 8.88 8.84 8.88h122.93c4.88 0 8.84-3.95 8.84-8.88 0-4.93-4.02-8.84-8.9-8.84z"/>
	<path class="s0" d="m219.76 445.05h-122.87c-4.87 0-8.84 3.97-8.84 8.89 0 4.88 3.97 8.89 8.84 8.89h122.93c4.88 0 8.84-4.01 8.84-8.89 0-4.88-4.02-8.89-8.9-8.89z"/>
	<g id="Clip-Path: Clip-Path" clip-path="url(#cp1)">
		<g id="Clip-Path">
			<g>
				<path class="s0" d="m175.31 475.47h-33.96c-4.92 0-8.9 3.96-8.9 8.84 0 4.93 3.98 8.91 8.9 8.91h34.01c4.93 0 8.89-3.98 8.89-8.91-0.05-4.88-4.02-8.84-8.94-8.84z"/>
			</g>
		</g>
	</g>
	<path class="s0" d="m166.9 158.85l20.84-30.43c1.07-1.61 1.17-3.7 0.32-5.46-0.92-1.72-2.73-2.8-4.61-2.8h-48.91c-2.4 0-4.49 1.67-5.08 4.03l-12.43 50.56c-0.59 2.62 0.75 5.26 3.26 6.16l28.28 10.77-9.21 50.56c-0.48 2.41 0.86 4.83 3.16 5.8 0.71 0.21 1.34 0.37 2.05 0.37 1.65 0 3.31-0.75 4.33-2.25l50.08-71.84c0.98-1.39 1.13-3.21 0.54-4.82-0.54-1.61-1.88-2.83-3.53-3.2z"/>
</svg>